<svg xmlns="http://www.w3.org/2000/svg" viewBox="0 0 64 64" fill="none">
  <rect width="64" height="64" rx="12" fill="#1E1E1E"/>
  <rect x="8" y="12" width="16" height="40" rx="3" fill="#2D2D2D" stroke="#3C3C3C" stroke-width="1"/>
  <rect x="28" y="8" width="28" height="48" rx="3" fill="#1E1E1E" stroke="#3C3C3C" stroke-width="1"/>
  <line x1="12" y1="20" x2="20" y2="20" stroke="#569CD6" stroke-width="1.5" stroke-linecap="round"/>
  <line x1="14" y1="25" x2="20" y2="25" stroke="#6A9955" stroke-width="1.5" stroke-linecap="round"/>
  <line x1="14" y1="30" x2="18" y2="30" stroke="#6A9955" stroke-width="1.5" stroke-linecap="round"/>
  <line x1="12" y1="35" x2="20" y2="35" stroke="#569CD6" stroke-width="1.5" stroke-linecap="round"/>
  <line x1="12" y1="40" x2="17" y2="40" stroke="#CE9178" stroke-width="1.5" stroke-linecap="round"/>
  <line x1="32" y1="16" x2="48" y2="16" stroke="#569CD6" stroke-width="1.5" stroke-linecap="round"/>
  <line x1="32" y1="21" x2="52" y2="21" stroke="#D4D4D4" stroke-width="1.5" stroke-linecap="round"/>
  <line x1="34" y1="26" x2="50" y2="26" stroke="#DCDCAA" stroke-width="1.5" stroke-linecap="round"/>
  <line x1="36" y1="31" x2="52" y2="31" stroke="#CE9178" stroke-width="1.5" stroke-linecap="round"/>
  <line x1="36" y1="36" x2="46" y2="36" stroke="#D4D4D4" stroke-width="1.5" stroke-linecap="round"/>
  <line x1="34" y1="41" x2="48" y2="41" stroke="#C586C0" stroke-width="1.5" stroke-linecap="round"/>
  <line x1="32" y1="46" x2="44" y2="46" stroke="#569CD6" stroke-width="1.5" stroke-linecap="round"/>
  <rect x="28" y="8" width="28" height="5" rx="2" fill="#2D2D2D"/>
  <circle cx="32" cy="10.5" r="1.5" fill="#569CD6"/>
  <circle cx="37" cy="10.5" r="1.5" fill="#6A9955"/>
</svg>
