<svg xmlns="http://www.w3.org/2000/svg" viewBox="0 0 64 64" fill="none">
  <rect width="64" height="64" rx="12" fill="#24292F"/>
  <path d="M32 16C23.16 16 16 23.16 16 32C16 39.08 20.58 45.06 26.94 47.18C27.74 47.32 28.04 46.84 28.04 46.42V43.58C23.46 44.52 22.52 41.26 22.52 41.26C21.8 39.42 20.78 38.94 20.78 38.94C19.38 38 20.9 38.02 20.9 38.02C22.46 38.14 23.28 39.62 23.28 39.62C24.66 41.96 26.88 41.28 28.1 40.86C28.24 39.86 28.64 39.18 29.08 38.8C25.44 38.42 21.62 36.96 21.62 30.84C21.62 29.08 22.24 27.66 23.32 26.54C23.16 26.16 22.6 24.56 23.48 22.38C23.48 22.38 24.78 21.98 28.02 24.02C29.28 23.68 30.64 23.52 32 23.52C33.36 23.52 34.72 23.68 35.98 24.02C39.22 21.98 40.52 22.38 40.52 22.38C41.4 24.56 40.84 26.16 40.68 26.54C41.76 27.66 42.38 29.08 42.38 30.84C42.38 36.98 38.54 38.4 34.88 38.78C35.44 39.26 35.94 40.2 35.94 41.64V46.42C35.94 46.84 36.24 47.34 37.08 47.18C43.42 45.06 48 39.08 48 32C48 23.16 40.84 16 32 16Z" fill="white"/>
</svg>
